<?xml version="1.0" encoding="utf-8"?>
<!-- Generator: Adobe Illustrator 27.2.0, SVG Export Plug-In . SVG Version: 6.00 Build 0)  -->
<svg version="1.1" id="Layer_1" xmlns="http://www.w3.org/2000/svg" xmlns:xlink="http://www.w3.org/1999/xlink" x="0px" y="0px"
	 viewBox="0 0 1920 1080" style="enable-background:new 0 0 1920 1080;" xml:space="preserve">
<style type="text/css">
	.st0{fill:url(#SVGID_1_);}
	.st1{fill:url(#SVGID_00000106149119608525379890000000004979151725157531_);}
	.st2{fill:url(#SVGID_00000076602576260816313420000001505961699835195832_);}
	.st3{fill:url(#SVGID_00000127032835789634578730000018225883768035471807_);}
	.st4{fill:url(#SVGID_00000054950661504878536810000009298974314320944806_);}
	.st5{fill:url(#SVGID_00000148663740914818693920000004221487503923425420_);}
	.st6{fill:url(#SVGID_00000121970020309991759490000018149444042861521068_);}
	.st7{fill:url(#SVGID_00000025420957378415002940000005133702403383536016_);}
	.st8{fill:url(#SVGID_00000079475411369392711440000018440303370273087138_);}
	.st9{fill:url(#SVGID_00000176738613969967639970000000110602765831202734_);}
	.st10{fill:url(#SVGID_00000172408830875597952360000015927216748858630044_);}
	.st11{fill:url(#SVGID_00000041268241706663740220000003347137189370407566_);}
	.st12{fill:#FFFFFF;}
</style>
<g>
	<g>
		<linearGradient id="SVGID_1_" gradientUnits="userSpaceOnUse" x1="1160.9219" y1="361.3985" x2="1571.0649" y2="361.3985">
			<stop  offset="0" style="stop-color:#FAEF5F"/>
			<stop  offset="0.3135" style="stop-color:#F9D757"/>
			<stop  offset="0.9729" style="stop-color:#F59A42"/>
			<stop  offset="1" style="stop-color:#F59741"/>
		</linearGradient>
		<path class="st0" d="M1566.8,340.5c-15.6,47.3-58.4,61.1-102.8,83.3c-44.5,22.2-81.6,21.7-123,49.3
			c-24.8,16.6-62.6,66.9-86.7,84.9c-23.9,17.9-46.8,38.4-76.6,41.4c-2,0.2-4.1,0.3-6.1,0.1c-2.1-0.1-4.2-0.7-6-1.9
			c-8.5-5.4-4.1-19.2,3.7-25.5c7.9-6.3,75.9-75.5,85.6-160.4c8.2-72.6-2.7-151.4-19.6-224.9c-2.6-11.3-5.1-22.8-3.6-34.2
			c1.5-11.5,7.8-23,18.4-27.5c1.4-0.6,2.7-1,4.1-1.4c10.2-2.4,21.6,1.7,29.6,8.7c9,8,14.6,19.2,19.1,30.5
			c21.2,53.3,23.4,114,5.9,168.6c-4.2,13.2-9.6,26.3-11.2,40.1c-0.5,4.7-0.5,9.6,0.2,14.2c1.1,9.3,4.6,17.9,11.4,24.4
			c10.2,9.6,25.3,11.5,39.3,10.4c33.8-2.9,64.6-21.7,89.4-44.8c24.8-23,44.9-50.8,66.9-76.6c9-10.5,19.9-21.6,33.8-22
			c8.5-0.2,16.5,3.9,22.4,10.3c3.4,3.8,6.2,8.4,7.8,13.1C1573,313.4,1571,327.6,1566.8,340.5z"/>
		
			<linearGradient id="SVGID_00000062873947799965496190000011342683257832041392_" gradientUnits="userSpaceOnUse" x1="1344.313" y1="283.5545" x2="1372.76" y2="408.0102">
			<stop  offset="0" style="stop-color:#FAEF5F"/>
			<stop  offset="0.3135" style="stop-color:#F9D757"/>
			<stop  offset="0.9729" style="stop-color:#F59A42"/>
			<stop  offset="1" style="stop-color:#F59741"/>
		</linearGradient>
		<path style="fill:url(#SVGID_00000062873947799965496190000011342683257832041392_);" d="M1320.7,376.2c3.6,11.9,12.8,22.8,25,25
			c5.7,1,21.4,0.9,29.4-4.6c3.6-2.5,7.5-4.7,10.6-7.9c11.5-11.6,17.7-28.3,16.6-44.6c-0.8-12.7-6.5-25.8-17.4-32.5
			c-13.6-8.4-32.3-4.6-44.6,5.6c-4.1,3.4-14.3,15.8-18.1,26.8C1318.8,354.4,1317.5,365.7,1320.7,376.2z"/>
		
			<linearGradient id="SVGID_00000111164891766756013240000004694713571212131220_" gradientUnits="userSpaceOnUse" x1="918.2786" y1="379.128" x2="1225.2284" y2="379.128">
			<stop  offset="0" style="stop-color:#EF7EC0"/>
			<stop  offset="0.2278" style="stop-color:#EC66AE"/>
			<stop  offset="0.7061" style="stop-color:#E52981"/>
			<stop  offset="1" style="stop-color:#E00063"/>
		</linearGradient>
		<path style="fill:url(#SVGID_00000111164891766756013240000004694713571212131220_);" d="M1215.5,421.1
			c-5.4,28.8-13.7,57.1-25.3,84.1c-10,23.4-23.5,44-37.4,65.4c-8.5,12.9-18.6,37.9-37.1,37.6c-1.2,0-2.4-0.1-3.4-0.2
			c-26.2-2.5-12.2-30.7-7.5-45.9c7.7-24.5,7.3-50.7,5.2-76c-2-25.3-6-51-17.7-73.5c-9.3-17.5-22.8-32.3-37.1-45.8
			c-28.8-27.2-61.4-50.5-96.5-68.7c-14.4-7.6-30.4-15.2-37.5-29.9c-5.1-10.6-3.5-24.4,3.7-33.4c0.1,0,0.1-0.1,0.1-0.1
			c2.4-3.2,5.5-5.8,9.3-7.4c13.8-6.3,29.9,0.1,43.2,7.4c42.2,23.6,87.7,62.8,114.7,103.1c9,13.5,21.2,37.8,34.2,47.6
			c9.1,6.9,21.4,10.8,32.4,9.1c0.3,0,0.7-0.1,1-0.2c4.3-0.7,8.5-2.4,12.1-5.2c9.1-7.1,12.9-19.2,14.4-30.6
			c8.8-59.8-36.2-119.8-33.8-180.3c0.5-11.7,6.7-30.1,25.3-27.8c0.8,0.1,1.5,0.2,2.1,0.3c17.9,2.7,24.7,9.9,32.7,27.1
			c8.5,17.8,9.7,38,10.6,57.7C1226.4,297.5,1226.9,360,1215.5,421.1z"/>
		
			<linearGradient id="SVGID_00000040560303139694760810000003751519421196306351_" gradientUnits="userSpaceOnUse" x1="1122.0002" y1="290.9003" x2="1158.1526" y2="365.1075">
			<stop  offset="0" style="stop-color:#EF7EC0"/>
			<stop  offset="0.2278" style="stop-color:#EC66AE"/>
			<stop  offset="0.7061" style="stop-color:#E52981"/>
			<stop  offset="1" style="stop-color:#E00063"/>
		</linearGradient>
		<path style="fill:url(#SVGID_00000040560303139694760810000003751519421196306351_);" d="M1139.9,299.4c-10.5,2-19.4,10-23.8,19.7
			c-4.4,9.8-4.6,21.1-2,31.4c3.2,12.6,11.1,24.5,22.9,30.1c11.8,5.6,27.4,3.6,35.6-6.5c4.1-5.1,6.1-11.6,7-18.1
			C1182.8,332.7,1171,293.4,1139.9,299.4z"/>
		
			<linearGradient id="SVGID_00000160179856856673830350000002084896751369171344_" gradientUnits="userSpaceOnUse" x1="774.7224" y1="462.0312" x2="1091.6511" y2="462.0312">
			<stop  offset="0" style="stop-color:#45F4FF"/>
			<stop  offset="0.357" style="stop-color:#43CFFE"/>
			<stop  offset="1" style="stop-color:#3F83FB"/>
		</linearGradient>
		<path style="fill:url(#SVGID_00000160179856856673830350000002084896751369171344_);" d="M1089.8,580.2
			c-1.4,10.9-4.1,23.1-10,32.7c-4.3,6.8-10.2,12.3-18.4,15.1c-1.8,0.7-3.8,1.1-5.8,0.6c-1.6-0.6-2.8-1.7-3.8-2.9
			c-6.5-8.1-5.5-19.6-6-30c-1.4-33.2-22.2-63.4-49.4-82.3c-27.3-19-60.4-27.8-93.2-32.2c-32.8-4.4-66.1-4.6-99.2-8.1
			c-6.3-0.7-12.9-1.5-18.3-4.9c-4.3-2.6-7.6-6.7-9.4-11.4c-0.9-2.5-1.5-5.1-1.5-7.8c0-7.7,4.2-15.2,10.6-19.3
			c5.4-3.3,12-4.3,18.4-4.9c37.3-3.7,75.3-0.3,111.3,9.9c23.4,6.8,46.2,16.4,70.3,19.1c9.5,1.1,20.2,0.7,26.9-6.1
			c5.6-5.6,6.9-14.8,4.6-22.6c-0.1-0.5-0.2-0.9-0.3-1.2c-2.6-8.1-8.2-14.9-14.2-21c-31.4-32.1-73.5-51.5-116.2-65.5
			c-6.2-2-12.5-4-17.6-7.9c-5.2-3.9-9-10.4-7.9-16.8c0.3-2.4,1.4-4.5,2.8-6.4c3.4-4.5,9.3-7.6,15-9c21.7-5.9,44.8,1.7,65,11.7
			c49,24.4,90.1,64.2,116.2,112.3C1085.6,469.5,1096.3,525.8,1089.8,580.2z"/>
		
			<linearGradient id="SVGID_00000066501284872096736180000004427204897453029009_" gradientUnits="userSpaceOnUse" x1="591.2993" y1="172.5996" x2="661.7023" y2="172.5996" gradientTransform="matrix(0.9894 0.1117 -0.1104 0.9776 369.4644 179.2094)">
			<stop  offset="0" style="stop-color:#45F4FF"/>
			<stop  offset="0.357" style="stop-color:#43CFFE"/>
			<stop  offset="1" style="stop-color:#3F83FB"/>
		</linearGradient>
		<path style="fill:url(#SVGID_00000066501284872096736180000004427204897453029009_);" d="M973.6,392.3
			c-10.7-3.4-23.8-2.2-31.6,5.2c-6.3,6-7.7,15.7-4.7,23.8c3.1,8.1,10,14.5,18.1,18.6c6.7,3.4,14.2,5.2,21.7,5.5
			c5.5,0.2,13.4-0.1,17.9-3c6.6-4.3,11.8-9.4,8.4-24.3C1001.8,411.1,992.1,398.1,973.6,392.3z"/>
		
			<linearGradient id="SVGID_00000109715497080709622260000005708793825323295633_" gradientUnits="userSpaceOnUse" x1="1045.5583" y1="628.6083" x2="901.6342" y2="481.1566">
			<stop  offset="0" style="stop-color:#45F4FF"/>
			<stop  offset="0.357" style="stop-color:#43CFFE"/>
			<stop  offset="1" style="stop-color:#3F83FB"/>
		</linearGradient>
		<path style="fill:url(#SVGID_00000109715497080709622260000005708793825323295633_);" d="M1079.7,612.9
			c-4.3,6.8-10.2,12.3-18.4,15.1c-1.8,0.7-3.8,1.1-5.8,0.6c-1.6-0.6-2.8-1.7-3.8-2.9c-6.5-8.1-5.5-19.6-6-30
			c-1.4-33.2-22.2-63.4-49.4-82.3c-27.3-19-60.4-27.8-93.2-32.2c-32.8-4.4-66.1-4.6-99.2-8.1c-6.3-0.7-12.9-1.5-18.3-4.9
			c-4.3-2.6-7.6-6.7-9.4-11.4c2.6,4.3,6.2,7.7,11.6,9.5c5.9,2,12.3,2,18.5,2c34.2-0.6,68.4-3.8,102.6-2.7c34.2,1.2,69,7.3,98.7,24.4
			c29.7,17,53.7,46.2,58.2,80.1c1.2,9.3,1,18.7,2.4,28.1c0.8,4.6,2,9.5,5.5,12.5C1075.3,612.2,1077.5,612.9,1079.7,612.9z"/>
		
			<linearGradient id="SVGID_00000170269129708505780970000012486627521824538043_" gradientUnits="userSpaceOnUse" x1="1014.5207" y1="406.3991" x2="920.2837" y2="353.6749">
			<stop  offset="0" style="stop-color:#45F4FF"/>
			<stop  offset="0.357" style="stop-color:#43CFFE"/>
			<stop  offset="1" style="stop-color:#3F83FB"/>
		</linearGradient>
		<path style="fill:url(#SVGID_00000170269129708505780970000012486627521824538043_);" d="M1016.9,425.2c-0.1-0.5-0.2-0.9-0.3-1.2
			c-2.6-8.1-8.2-14.9-14.2-21c-31.4-32.1-73.5-51.5-116.2-65.5c-6.2-2-12.5-4-17.6-7.9c-5.2-3.9-9-10.4-7.9-16.8
			c0.3-2.4,1.4-4.5,2.8-6.4c-0.5,0.8-0.7,1.7-0.9,2.7c-1,5.3,1.5,10.7,5.2,14.6c3.8,3.8,8.7,6.3,13.8,8.2c15.2,6,31.6,8.5,47.3,13.2
			c24,7.4,46.3,20.5,64.3,38c7.4,7.2,14.2,15.4,18.7,24.7C1014.5,413.2,1016.3,419.1,1016.9,425.2z"/>
		
			<linearGradient id="SVGID_00000062901812905686964600000011692603099607978384_" gradientUnits="userSpaceOnUse" x1="1128.324" y1="589.1554" x2="1033.7855" y2="378.9135">
			<stop  offset="0" style="stop-color:#EF7EC0"/>
			<stop  offset="0.2929" style="stop-color:#EB66AD"/>
			<stop  offset="0.9087" style="stop-color:#E2297C"/>
			<stop  offset="1" style="stop-color:#E11F74"/>
		</linearGradient>
		<path style="fill:url(#SVGID_00000062901812905686964600000011692603099607978384_);" d="M1112.4,607.9
			c-26.2-2.5-12.2-30.7-7.5-45.9c7.7-24.5,7.3-50.7,5.2-76c-2-25.3-6-51-17.7-73.5c-9.3-17.5-22.8-32.3-37.1-45.8
			c-28.8-27.2-61.4-50.5-96.5-68.7c-14.4-7.6-30.4-15.2-37.5-29.9c-5.1-10.6-3.5-24.4,3.7-33.4c-1.9,3-3.2,6.5-3,11.4
			c0.2,19.5,18.7,33.3,35.7,43.2c30.9,18.3,63.2,34.5,92.1,55.9c29,21.3,55,48.3,68.2,81.7c17.4,43.5,11.2,93.5-6.2,137
			c-3.8,9.7-8.4,19.8-7.1,30C1105.2,599.4,1108.2,604.5,1112.4,607.9z"/>
		
			<linearGradient id="SVGID_00000071530738533806236930000017931664899828493463_" gradientUnits="userSpaceOnUse" x1="1185.9637" y1="349.7793" x2="1156.3324" y2="206.3253">
			<stop  offset="0" style="stop-color:#EF7EC0"/>
			<stop  offset="0.2278" style="stop-color:#EC66AE"/>
			<stop  offset="0.7061" style="stop-color:#E52981"/>
			<stop  offset="1" style="stop-color:#E00063"/>
		</linearGradient>
		<path style="fill:url(#SVGID_00000071530738533806236930000017931664899828493463_);" d="M1197.5,346.8
			c-2.3,12.8-6.7,25.5-15.2,35c-5.9,6.3-13.9,11.1-22.4,12.3c4.3-0.7,8.5-2.4,12.1-5.2c9.1-7.1,12.9-19.2,14.4-30.6
			c8.8-59.8-36.2-119.8-33.8-180.3c0.5-11.7,6.7-30.1,25.3-27.8c0.8,0.1,1.5,0.2,2.1,0.3c-3.5,1-6.9,2.8-8.7,4.4
			c-5.8,4.9-9.5,12.2-10.5,19.5c-1.7,12,2,23.8,5.8,35.3c2.4,7.2,4.7,14.4,7.1,21.7c3.2,9.9,6.4,19.9,10.2,29.6
			c3.2,8.4,6.8,16.5,9.5,25.1C1199.5,305.7,1201,326.7,1197.5,346.8z"/>
		
			<linearGradient id="SVGID_00000118382296271050479680000003504317017613644475_" gradientUnits="userSpaceOnUse" x1="1160.9219" y1="361.6766" x2="1275.5796" y2="361.6766">
			<stop  offset="0" style="stop-color:#FAEF5F"/>
			<stop  offset="0.3944" style="stop-color:#F4D759"/>
			<stop  offset="1" style="stop-color:#EAAB4F"/>
		</linearGradient>
		<path style="fill:url(#SVGID_00000118382296271050479680000003504317017613644475_);" d="M1267.9,446.4
			c-13.1,47.6-44.7,88.7-82.7,120.2c-6.4,5.4-13.5,11.1-16,19.1c-1.4,4.6-0.3,10,2.4,13.9c-2.1-0.1-4.2-0.7-6-1.9
			c-8.5-5.4-4.1-19.2,3.7-25.5c7.9-6.3,75.9-75.5,85.6-160.4c8.2-72.6-2.7-151.4-19.6-224.9c-2.6-11.3-5.1-22.8-3.6-34.2
			c1.5-11.5,7.8-23,18.4-27.5c1.4-0.6,2.7-1,4.1-1.4c-4.2,3.5-6.5,9.1-7.7,14.3c-5.6,27.1,0.7,55,6.3,82c6,28.4,11.2,57.1,15.6,85.8
			C1275.5,352.6,1280.4,400.9,1267.9,446.4z"/>
		
			<linearGradient id="SVGID_00000071520381220551145320000018397223440246014337_" gradientUnits="userSpaceOnUse" x1="1525.5475" y1="235.4001" x2="1381.5018" y2="382.7383">
			<stop  offset="0" style="stop-color:#FAEF5F"/>
			<stop  offset="0.3135" style="stop-color:#F9D757"/>
			<stop  offset="0.9729" style="stop-color:#F59A42"/>
			<stop  offset="1" style="stop-color:#F59741"/>
		</linearGradient>
		<path style="fill:url(#SVGID_00000071520381220551145320000018397223440246014337_);" d="M1560.7,287.5c-9.8-2-18.9,4-25.2,11
			c-10,10.9-17.2,24.2-25.4,36.6c-22.6,34.1-56.3,58.7-93,76.8c-42.3,20.8-80,15.4-96.1,9.1c-15.9-6.1-23.4-18-24-40.2
			c0.1,1.7-0.2,3.6,0.5,5.2c1.1,9.3,4.6,17.9,11.4,24.4c10.2,9.6,25.3,11.5,39.3,10.4c33.8-2.9,64.6-21.7,89.4-44.8
			c24.8-23,44.9-50.8,66.9-76.6c9-10.5,19.9-21.6,33.8-22C1546.8,277,1554.8,281.1,1560.7,287.5z"/>
	</g>
	<g>
		<path class="st12" d="M350,949.7c-1.4-1.6-1.9-3.9-1.5-6.7l50.6-408.6c0.4-2.8,1.4-5.1,3-6.7c1.6-1.6,3.9-2.4,6.7-2.4h93.3
			c2.8,0,5,0.8,6.4,2.4c1.4,1.6,1.9,3.9,1.5,6.7l-17.7,144.5c-0.4,1.6-0.1,2.7,0.9,3.4c1,0.6,1.9,0.1,2.7-1.5l120.7-150
			c3.2-3.7,7.3-5.5,12.2-5.5h105.5c4.5,0,6.7,1.6,6.7,4.9c0,2-0.8,4.1-2.4,6.1L594.9,711.9c-1.6,1.6-1.8,3.3-0.6,4.9L693,941.1
			c0.8,2.4,1.2,4.1,1.2,4.9c0,4.1-2.8,6.1-8.5,6.1H581.4c-5.3,0-8.7-2-10.4-6.1l-62.2-149.4c-0.4-1.2-1.1-1.8-2.1-1.8
			c-1,0-1.9,0.6-2.7,1.8L474.1,835c-0.8,1.6-1.2,3-1.2,4.3L460.1,943c-0.4,2.8-1.5,5.1-3.4,6.7c-1.8,1.6-4.2,2.4-7,2.4h-93.3
			C353.6,952.1,351.4,951.3,350,949.7z"/>
		<path class="st12" d="M986.4,655.4c17.1,16.9,25.6,40.2,25.6,69.8c0,3.7-0.4,10-1.2,18.9L986.4,943c-0.4,2.8-1.5,5.1-3.4,6.7
			c-1.8,1.6-4.2,2.4-7,2.4h-93.3c-2.8,0-5-0.8-6.4-2.4c-1.4-1.6-1.9-3.9-1.5-6.7l21.3-173.8c0.4-1.6,0.6-4.1,0.6-7.3
			c0-10.2-2.5-18.3-7.6-24.4c-5.1-6.1-12.1-9.1-21-9.1c-10.2,0-18.7,3.8-25.6,11.3c-6.9,7.5-11.2,17.4-12.8,29.6L808.3,943
			c-0.4,2.8-1.5,5.1-3.4,6.7c-1.8,1.6-4.2,2.4-7,2.4h-93.3c-2.8,0-5-0.8-6.4-2.4c-1.4-1.6-1.9-3.9-1.5-6.7l50.6-408.6
			c0.4-2.8,1.4-5.1,3.1-6.7c1.6-1.6,3.9-2.4,6.7-2.4h93.3c2.8,0,5,0.8,6.4,2.4c1.4,1.6,1.9,3.9,1.5,6.7l-15.9,130.5
			c-0.4,2-0.2,3.3,0.6,3.7c0.8,0.4,1.6-0.2,2.4-1.8c18.3-24.4,43.1-36.6,74.4-36.6C947.1,630.1,969.3,638.6,986.4,655.4z"/>
		<path class="st12" d="M1310.8,813.7c-0.8,5.7-4.1,8.5-9.8,8.5h-176.2c-2.4,0-3.7,1-3.7,3c0,4.9,1,8.9,3.1,12.2
			c3.2,6.9,9.5,12.7,18.9,17.4c9.3,4.7,20.3,7,32.9,7c10.6,0,20.6-1.7,30.2-5.2c9.5-3.4,17.8-8,24.7-13.7c2-1.6,4.3-2.4,6.7-2.4
			c2.4,0,4.5,1.2,6.1,3.7l37.2,59.2c1.2,1.6,1.8,3.5,1.8,5.5c0,2.8-1.2,5.3-3.7,7.3c-15.9,13.8-34.5,24.1-55.8,30.8
			c-21.3,6.7-43.6,10.1-66.8,10.1c-37,0-67.5-7.9-91.5-23.8c-24-15.9-40-38.4-48.2-67.7c-4.1-12.6-6.1-27.4-6.1-44.5
			c0-10.6,0.4-18.5,1.2-23.8c2.8-24.4,9.1-47.2,18.9-68.3c14.6-30.9,35.2-55.1,61.6-72.6c26.4-17.5,56.3-26.2,89.6-26.2
			c26,0,49.1,6.4,69.2,19.2c20.1,12.8,35.8,30.3,47,52.4c11.2,22.2,16.8,47.1,16.8,74.7C1315,786.2,1313.6,798.7,1310.8,813.7z
			 M1132.7,752.7l-3.1,6.1c-0.8,2.8,0.2,4.3,3.1,4.3h66.5c2,0,3.1-1,3.1-3.1l-0.6-7.3c-1.2-7.7-4.7-13.7-10.4-18
			c-5.7-4.3-13-6.4-22-6.4C1153.4,728.3,1141.2,736.5,1132.7,752.7z"/>
		<path class="st12" d="M1301.9,949.7c-1.4-1.6-1.9-3.9-1.5-6.7l50.6-408.6c0.4-2.8,1.4-5.1,3.1-6.7c1.6-1.6,3.9-2.4,6.7-2.4h93.3
			c2.8,0,5,0.8,6.4,2.4c1.4,1.6,1.9,3.9,1.5,6.7L1412,943c-0.4,2.8-1.5,5.1-3.4,6.7c-1.8,1.6-4.2,2.4-7,2.4h-93.3
			C1305.5,952.1,1303.3,951.3,1301.9,949.7z"/>
	</g>
</g>
</svg>
